<?xml version="1.0" encoding="UTF-8"?>
<svg id="_圖層_1" data-name="圖層_1" xmlns="http://www.w3.org/2000/svg" version="1.1" viewBox="0 0 2400 2400">
  <!-- Generator: Adobe Illustrator 29.8.3, SVG Export Plug-In . SVG Version: 2.1.1 Build 3)  -->
  <defs>
    <style>
      .st0 {
        fill: #fff;
      }
    </style>
  </defs>
  <path class="st0" d="M2400,0v2400H0V0h2400ZM1032.84,443.16c-4.6-4.31-7.9-11.19-14.83-14.13-14.34.99-7.37,16.92-7.99,28.07-1.63,29.01-22.72,53.81-37.99,77.39-1.05,1.62-4.13,2.11-4.91,3.55-3.11,5.78-5.18,16.16-.52,21.35,5.78,6.44,30.09,5.09,39.85,7.17,38.73,8.23,43.65,30.31,64.42,59.57l13.12,7.86c2.66-49.47-33.98-95.96-85.98-89.99-2.6-2.92,12.28-19.26,15.05-23.93,9.36-15.74,11.83-28.31,16.88-45.18,2.61-8.72,10.07,4.62,13.31,6.84,10.21,6.97,32.42,12.92,44.73,12.28,1.42,1.26-15.51,28.61-17.01,33.96-3.99,14.24-5.66,33.57,5.05,45.14,26.52.06,17.53-21.52,25.13-38.97,1.61-3.7,19.18-27.85,21.37-29.65,1.39-1.14,5.26-.48,6.55-2.38,1.67-2.47.21-7.09,1.96-10.1,2.13-3.67,13.38-6.1,11.13-16.73-13.17-10.88-29.3-3.64-42.92-3.9-1.89-.04-4.2-2.47-6.55-2.66-30.59-2.49-37.6-4.76-59.85-25.57ZM1483.23,702.78c-25.46-22.87-66.86-51.34-99.63-61.39-16.15-4.95-68.43-16.46-78.15,3.12-9.4,18.93,28.43,11.6,36.68,12.39,55.76,5.36,147.2,66.81,164.81,121.15,5.37,16.57-1.08,30.35,14.9,43.1,4.6,3.67,19.48,6.49,27.49,10.51,109.06,54.58,147.07,214.02,158.81,325.21l11.84,99.11c-5.86-2.32-2.98-12.33-4.11-16.86-6.51-26.16-23.94-54.07-43.85-72.15-34.29-31.13-71.18-30.62-114.92-22.87-4.83.85-16.91,9.36-20.09,9.19-18.94-14.96-34.4-33.41-48.23-53.08-29.71-42.26-54.7-96.97-72.15-147.85-3.4-9.92-19.34-71.44-22.61-73.47l-16.15,2.26c1.72,42.15,16.11,87.36,31.14,126.83,19.29,50.67,57.74,122.43,97.66,159.33,6.89,6.37,14.86,10.28,24.34,10.27,18.75-.02,36.12-12.22,56.08-13.46,90.32-5.59,128.03,98.7,83.56,169.41-18.2,28.95-51.4,49.01-79.46,64.64-5.84,3.25-19.18,12.97-23.78,14.33-2.87.85-7.1-.79-7.36-.53-1.36,1.36-3.53,19.13-4.55,22.51-32.4,107.45-94.45,213.41-192.85,271.15-182.63,107.18-374.35-2.14-456.53-176.77,2.29-73.2,10.8-145.55,24.35-217.42l13.55-55.47,10.57,3.73c28.01-22.99,63.79-48.81,102.08-39.77l1.31,6.03c-34.2-17.65-41.88,24.56-26.81,47.83,16.01,24.73,47.92,20.07,63.66-2,18.86-26.44-1.37-66.43-29.71-75.95-34.45-11.57-78.88,13.06-103.51,36.16l-15.59,17.95c6.07-29.89,14.66-59.24,28.88-86.24l73.09,6.25c-1.85-7.95,3.91-5.14,7.11-7.92,2.68-2.33,4.09-7.44,8.9-9.1,1.09-2.35-7.35-7.32-9.37-8.61-11.65-7.44-35.06-10.14-49.52-10.41-4.97-.09-18.58,2.28-19.91,1.95-7.16-1.78.29-7.97,1.23-10.49,7.88-21.12,16.93-34.55,26.31-53.69,2.57-5.24,4.36-16.85,5.74-19.27,1.56-2.74,20.26-13.82,24.28-16.79,89.78-66.37,184.75-118.94,291.71-154.2,13.16-4.34,42.24-8.26,50.62-17.38,11.71-12.75-1.27-17.69-12.66-21.52-106.2-35.64-238.22-14.54-340.99,23.86-215.24,80.43-342.52,272.2-371.17,496.84-2.34,18.37.87,36.09-.69,51.14s-14.37,48.28-18.64,65.53c-2.45,9.86-2.5,21-5.16,30.83-12.04,44.45-89.46,97.59-129.31,115.11-2.42,1.06-23.34,6.43-25.47,6.31-9.21-.53-39.03-34.88-44.03-12.41-2.29,10.31,17.41,21.64,24.02,26.22,2.94,2.04,4.97,6.05,8.25,7.75,14.41,7.48,39.35-2.16,53.78-7.72,39.35-15.17,72.07-42.19,100.95-72.03-4.95,74.59-6.19,150.12-1.15,224.6,1.17,17.37,1.81,37.57,3.38,54.18.58,6.08,4.77,17.81,10.33,20.63,13.38,6.78,18.29-1.75,19.46-14.4,2.67-28.83-6.97-76.48-8.05-107.91-6.39-186.38,22.98-337.8,108.62-503.52,85.97-166.36,234.19-286.28,411.51-344.49,27.63-9.07,56.93-13.18,84.9-21.1,2.82,1.96-2.88,3.59-3.93,4.07-10.25,4.75-22.68,8.78-32.47,13.53-136.25,66.2-274.28,165.15-372.64,281.45-148.22,175.25-179.68,426.18-154.32,648.51l-.28,10.08c6.34,8.7,2.53,30.19,15.88,31.8,10.82,1.3,13.21-5.41,14.26-14.92,3.62-33.1-12.08-83.99-9.58-119.4-.64-90.04,3.31-178.62,24.2-265.99,8.5-35.57,19.49-70.8,31.92-105.09,3.74-.42,1.63,4.2,1.4,6.39-1.18,11.2-5.41,24.67-7.62,36.39-10.49,55.51-12.17,109.8-15.25,166.26-.72,13.12,1.97,34.6-.74,45.76-1.92,7.91-8.68,15.42-11.37,22.61-18.54,49.57-19.74,119.72,2.54,168.59,3.38,7.42,10.69,15.22,13.46,22.54,3.73,9.87,1.48,23.47,13.11,28.89,16.03,7.46,13-5.67,17.52-13.37,3.47-5.9,14.36-4.17,4.98-16.6-1.7-2.25-4.86-2.82-6.91-5.57-36.48-49.03-40.1-127.51-20.55-184.31,1.92-5.59,7.64-9.67,5.4-17.61,15.41-1.94,24.51,10.91,39.85,12.19-2.68,18.62-11.71,36.24-13.6,55.07-3.16,31.53,3.89,69.57,17.39,98.12,2.36,5,18.01,27.86,17.88,29.65-5.93,10.37-16.18,5.53-15.58,19.89s7.44,28.4,23.99,24.05c13.07-8.96.46-31.04,7.21-40.85,1.38-2,4.83-2.51,5.88-4.11,5.23-7.98-8.68-24.17-10.54-31.47-2.29-9-.05-19.65-.48-27.52-2.88-52.45-3.11-104.85-2-156.03,2.43-111.97,23.41-287.89,64.49-391.51,5.71-14.39,23.17-37.03,38.58-41.43,2.86-.82,3.52.21,2.98,2.98-.76,3.86-7.42,14.5-9.45,20.56-56.93,169.96-59.5,366.06-53.7,543.42.92,28.22-3.07,89.81,8.69,114.43,3.09,6.46,14.58,16.78,21.44,10.59,10.11-9.12,3.84-37.49,3.15-49.36-3.71-64.29-7.74-143.1-4.25-207.73.41-7.51,3.45-14.96,2.1-22.92,20.73,27.49,39.83,56.39,63.9,81.03,99.36,101.71,228.99,142.65,364.23,88.11,6.17-2.49,23.61-6.13,27.83-10.21,2.68-2.6,1.74-6.6,2.06-6.95.25-.28,3.37,1.86,5,1.72,15.53-1.39,74.32-50.4,87.97-63.7,24.96-24.32,50.23-58.2,68.63-87.37,10.61-16.83,18.31-35.06,27.37-52.65,5.77,34.61,4.13,69.8,4.9,105.1.98,45.03,1.72,90.35,2.23,136,.24,21.19-2.85,42.62-.23,64.01.59,4.84,4.01,7.98,4.24,12.82,4.25-2.78,12.34,1.84,13.89,1.18,16.7-7.07,8.24-57.29,8.37-72.09.68-76.57,4.93-156.4-4.37-232.03-1.49-12.1,2.19-22.83-9.09-33.05-2.76-2.5-11.54,3.26-8.95-10.86.74-4.02,4.15-5.15,4.89-7.17,4.21-11.5,10.43-24.75,13.72-34.34,2.6-7.59,3.6-15.26,3.7-23.26,70.53-30.07,133.47-94.83,131.71-176.27,3.08-.42,2.9,5.24,3.14,7.37,4.2,37.19,1.96,76.43,6.9,113.7l-.08,236.91c-5.24-3.22-7.47-13.3-7.95-19.02-.98-11.84,3.16-17.55,4.09-27.91.24-2.65-.92-22.11-2.14-23.07l-7.98,1.99,1.99-5.97c-1.18-1.11-21.11,7.04-21.71,1.06.73-1.88,1.93-4.12,1.78-6.11-3.11-41.82-.9-87.39-8.12-127.73-4.68-26.11-26.27-23.02-25.91,3.81l5.49,159.73c-.94,4.95-27.38,21.45-29.52,19.22-.32-8.32.37-16.74.09-25.07-.44-13.07-1.89-26.64-2.17-39.85-.25-11.58,3.06-55.9-1.11-62.96-.79-1.34-3.52-1.68-4.77-3.66s-1.43-7.9-2.17-8.44c-.55-.41-8.34,2.55-11.85-4.01-.26,3.97-3.75,6.51-5.01,10.02-6.33,17.53-3.22,82.3-3.1,105.06.04,8.23,3.02,21.43.15,29.66-.81,2.32-4.22.35-6.21,2.51-10.93,11.91,3.35,18.15,6.56,27.35,5.18,14.82-.82,88.92-.59,110.36.2,18.57,3.97,39.92,4.25,58.13.32,20.18-13,47.73,18.79,48.6,18.6-15.12,8.08-33.66,7.06-52.62-1.12-20.9-2.18-59.69,0-80.11,2.35-22.03,21.83-29.94,12.73-64.44-2.19-8.29-8.14-14.63-10.64-22.51,16.2-.85,28.14-11.21,42.85-16.14,5.18,3.97,2.78,9.55,4.12,14.01,1.22,4.07,5.71,11.08,7.77,14.29,3.18,4.94,5.93,10.85,9.25,15.81-11.55.31-49.88,21.07-50.02,33.06-.08,6.97,12.27,10.64,18.01,6.96.99,1.17-1.32,26.67-1.24,30.66.38,18.06,2.65,36.46,3.33,54.25.5,12.93-5.33,62.51,10.97,65.2,27.36-4.74,15.68-38.52,15.24-57.37-.13-5.47,1.44-11.96,1.33-17.54-.56-27.94-3.84-56.04-1.57-84.12,1.96-8.09,22.66-10.39,27.35-4.49,3.64,23.86.56,49.69.54,74.29,0,7.16,2.45,15.22,2.13,24.2-.63,17.83-9.28,28.66,2.2,45.65,2.59,3.83,7.25,4.38,7.91,9.07,26.73-8.44,16.32-33.8,15.84-52.83-.86-34.35-.19-73.87.36-107.99.1-6.12,5.4-13.1,5.23-15.65-2.25-32.97-4.94-67.39-4.85-100.68.14-49.91,6.78-100.79-.88-149.6,9.03-1.8.41-13.28.61-17.68,1.78-41.19-2.67-86.38-6.56-128.32-11.28-121.56-26.63-268.98-98.73-370.26-11.11-15.61-25.47-29.61-37.2-44.76,5.58.69,12.95-3.2,16.93-3.64,5.7-.63,12.38,1.12,18.27,0,10.11-1.93,31.82-14.4,39.38-12.43,3.2.83,7.28,17.52,9.34,21.15,4.15,7.3,11.08,13.28,16.14,19.93,1.53,2.01,1.54,5.92,2.35,6.56,1.35,1.05,5.06-.01,7.49,1.54,33.25,21.2,59.76,30.61,100.06,22.06,25.54-5.42,65.98-30.13,78.1-52.63,3.52-6.53,5.5-20.05,3.86-27.14-.34-1.46-3.03-1.49-3.79-2.95-6.16-11.71-3.62-4.82-7.74-8.86-1.74-1.7,1.95-7.34-4.37-5.61-15.15,69.09-146.09,91.91-165.44,16.41-2.23-8.72-1.27-19.8-3.44-26.57-1.64-5.12-11.36-8.4-11.17-15.84-5.54,5.48-9.64,1.42-17.02,3.86-12.11,4-28.19,18.44-42.4,23.69-32.12,11.86-67.9,10.81-94.97-11.56-14.58-12.05-33.25-42.63-35.26-61.51-.82-7.69,18.14-23.62,22.69-30.47,2.36,5.55,1.45,12.84,3.15,18.47.19.63,3.87,8.65,4.99,11.35,7.75,18.67,9.47,18.41,24.18,28.85,1.81,1.28,2.35,4.83,5.9,7.09,20.64,13.12,58.52,11.13,80.77,3.24,14.86-5.27,45.83-25.05,57.31-35.68,4.95-4.58,5.33-13.96,16.67-13.33,7.72,47.97,38.48,93.41,92.47,87.46,10.34-1.14,24.41-6.36,33.01-10.95,15.99-8.53,23.82-15.27,28.58-33.6l-10-7.9,3.95-6.99c-20.89-.22-31.54,17.16-49.53,23.45-37.41,13.08-61.69-13.82-71.96-46.95-3.38-10.91-1.99-25.85-11.48-34.39-8.26,8.08-23.75,2.28-17.04-10.11-22.31,6.18-34.28,27.29-51.41,39.48-20.81,14.81-65.07,33.45-88.44,17.39-9.16-6.3-18.61-19.9-21.26-30.74-6.09-24.97,7.85-54.29-32.8-43.15-7.15,9.81-13.1,24.78-20.09,34.01-5.38,7.11-15.58,12.18-18.03,21-3.18,2.25-15.41-14.23-18.73-17.2ZM810.36,686.37c.64-1.01,4.37-.83,5.2-3.52,1.93-6.19-2.83-28.89-7.49-33.93-2.99-3.23-8.34-3.18-11.09-6.88-16.51,22.05-18.7,46.89-36.12,69.83-58.72,77.33-150.3,80.33-212.61,135.39-26.53,23.44-59.11,64.26-44.35,101.83,5.5,14.02,19.86,16.32,25.36,30.74,10.32,5.55,35.28,38.34,42.63,41.07,2.96,1.1,13.5-2.48,18.11-.89-1.18-81.42,85.9-84,141.32-111.68,24.29-12.13,49.03-29.2,71.38-45.6,32.8-24.07,64.41-53.78,78.65-94.38,2.04-5.81,3.93-14.15,4.66-20.36l5.97,2c7.02-8.18-34.15-39.06-41.06-45.87-6.17-6.08-23.32-34.93-31.89-16.08-3.61,7.94,6.01,18.42,11.01,24.91,5.53,7.18,23.05,20.98,21.64,29.54-.75,4.53-11,23.03-14.07,28.12-34.71,57.71-117.04,103.53-175.13,128.87-37.51,16.36-64.95,23.08-83.9,64.06-2.3,4.97-4.07,10.99-4.6,16.46l-52.71-42.54c-4.41-11.29,16.01-40.56,23.7-49.48,38.77-44.94,92.18-47.4,140.05-71.75,6.8-3.46,6.59-4.26,14.38-7.71,18.91-8.37,46.45-28.78,62.08-42.53,3.22-2.83,15.24-11.62,17.4-14.1,2.51-2.88,7.46-14.89,9.63-17.36,1.64-1.87,5.29-1.02,7.61-3.92,3.84-4.79,5.9-15.45,8.03-21.07.9-2.38,6.77-.88,2.04-9.32,10.55-1.51,1.51-9.66,4.16-13.85ZM1449.27,744.75c-96.17-77.95-257.12-118.12-370.36-66.84-14.91,6.75-26.83,13.01-26.93,31.06,24.06,3.45,45.9-12.37,68.5-19.5,118.37-37.33,264.51,24.52,351.56,105.5,6.59,6.13,17.5,23.05,24.99,23.25,10.74.29,3.14-17.79.77-22.59-7.09-14.35-35.33-40.19-48.52-50.88ZM1289.45,738.51c-1.77-.82-32.38-6.7-37.48-7.65-100.3-18.66-236.15-12.16-326.03,40.06-19.09,11.09-59.93,38.39-73.63,54.37-9,10.5-17.72,28.66-1.57,36.56,27.99-29.34,58.55-52.46,94.29-71.84,121.78-66.02,280.94-47.97,406.93-2.97,18.24,6.51,81.41,44.44,94.61,40.62,2.18-.63,4.55-2.91,5.16-5.1l-1.59-7.71-50.74-35.26-44.43-21.62-1.95,4.01c-2.34-2.71-4.45-4.75-7.88-6.12-17.57-7.03-39.02-9.59-55.68-17.36ZM1267.55,786.62c-6.56-3.91-48.14-2.65-58.71-2.94-208.45-5.75-417.3,79.47-488.44,283.73-1.03,2.97-6.56,20.34-6.5,21.46s3.7.86,4.08,2.48c1.78,7.46-.92,10.08,7.14,16.77,4.85-1.12,8.84-4.33,11.77-8.23,6.27-8.37,15.29-40.55,20.77-53.23,96.17-222.73,382.39-278.12,597.22-216.53,8.73,2.5,49.76,23.1,51.26,6.82-3.6-12.44-20.28-19.73-31.5-24.82-19.22-8.72-51.65-17.14-74.13-21.63-9.07-1.81-24.89-6.37-31.54-.49-1.15.36-.75-3-1.41-3.4ZM1553.23,876.81c-7.84-7.7-34.13-30.99-43.16-33.96-7.65-2.52-9.57,2.72-7.21,9.25,13.27,17.45,29.4,32.41,43.03,49.48,51.06,63.89,81.12,125.95,103.54,203.99,1.4,4.86,5.83,30.87,6.93,32.09.67.75,4.38.38,6.54,2.35,1.89,1.72,2.26,5.34,5.02,6.81,1.56.83,6.98-1.17,9.11,3,8.19-7.99,8.23-22,6.87-32.72-9.48-74.93-76.98-187.6-130.66-240.29ZM1630,1124.02c3.51-16.25-3.19-30.7-9.65-45.36-27.18-61.71-88.13-160.96-131.52-212.48-11.16-13.25-21.73-18.93-24.53,2.38,18.92,29.9,37.79,59.79,56.02,90.13,26.66,44.36,53.74,91.51,76.5,137.52,2.93,5.92,3.38,13.41,9.11,18.87,3.51,3.34,9.12,2.69,10.53,8.57l13.54.38ZM1494.73,1005.31c-9.11-17.34-20.01-42.91-27.7-61.34-9.8-23.52-17.42-47.94-26.21-71.85-4.52-6.97-16.26-1.77-16.52,6.78-.22,7.55,6.58,38.02,9.09,46.71,9.89,34.29,28.1,71.17,44.45,101.98,7.69,14.49,13.03,25.58,20.44,38.69,3.56,6.3,11.79,18.36,16.04,24.4,10.85,15.44,29.56,42.6,49.23,42.94,4.12.07,3.75-7.42,10.19-5.79,3.55-13.94-9.95-19.96-15.78-27.35-20.11-25.52-48.53-67.2-63.23-95.17ZM1214.13,1153.85c4.54-.49,10.06,1.55,14.17,1.06,24.72-3,56.62-17.53,82.86-20.75,23.3-2.85,61.77.88,83.23,10.45,7.34,3.27,31.12,25.55,34.63,25.3,1.25-.09,4.51-5.54,4.61-7.24.59-9.79-35.42-34.59-44.28-39.01-42.59-21.23-92.21-14.85-136.51-7.8-10.62,1.69-18.29-.44-29.9,4.09-12.89,5.04-6.3,5.77-7.99,10.24-1.08,2.86-4.04,5.03-4.65,7.35-1.51,5.74,4.92,10.13,3.82,16.32ZM1388.67,1207.33c-33.7-32.89-83.3-23.61-120.49-.15-10.95,6.91-49.61,35.06-29.42,46.63,31.23-20,71.64-48.17,110.84-36.42,3.35,1,13.79,3.62,12.39,8.6-10.07-.29-16.45-8.21-27.1-2.1-16.04,9.21-12.87,33.19-4.84,47.13,8.87,15.4,30.97,24.04,48.02,20.23,31.75-15.3,39.14-38.42,23.12-69.51-2.57-4.99-8.8-10.77-12.52-14.41ZM1191.42,1456.54c-17.87-11.73-37.01-12.55-39.38-37.56-3.85-40.58,25.76-82.21,35.59-120.43l-8.37-6.27c-5.89,1.14-36.45,64.17-40.04,73.93-14.38,39.04-20.58,83.04,20.95,106.6,13.97,7.92,39.4,3.48,31.25-16.27ZM605.38,1456.59c-10.29-12.79-15.7,12.19-19.42,18.36-18.94,31.47-72.97,72.24-105.6,88.4-4.49,2.22-9.25,4.41-14.38,4.66l2.03,3.96c-9.64-2.17-15.78,2.81-23.92,5.14-5.42,1.55-10.86,4.64-11.51,4.8-5.09,1.25-11.63-1.92-14.3,5.5,1.07,19.04,21.85,16.77,35.73,13.57,50.99-11.75,112.93-61.38,140.8-105.18,5.26-8.26,17.47-30.64,10.56-39.22ZM1254.83,1564.83c12.11-9.98,48.01-41.75,14.62-46.54-22.3,26.59-49.27,47.56-83.51,56.66-11.36,3.02-35.24-1.26-29.56,17.64,3.21,10.67,32.97,3.34,41.97.9,20.53-5.56,40.19-15.23,56.48-28.65ZM1512.4,1616.43c-4.01,2.32-7.85,21.67-7.96,27.06-1.07,51.77-.1,103.33-2.95,154.99-.92,16.74-6.94,26.75-.92,45.95,2.87,9.16,12.17,18.06,20.48,9.63,8.54-8.67,6.26-69.46,7.22-84.79,2.7-42.84,9.93-87.06,5.82-130.36-.87-9.2-9.54-29.51-21.69-22.47ZM1712.69,1870.69c-16.32,13.97-24.74,61.37-6.75,76.37,28.27,23.59,55.13-21.75,53.59-47.58-1.47-24.56-23.55-48.72-46.84-28.79ZM1541.33,1947.33c3.52-3.47,12.76-18.39,13.78-23.22,2.79-13.19,1.78-41.62-10.07-50.15-32.79-23.58-62.92,46.37-43.09,73.09,9.73,13.11,28.67,10.84,39.38.28ZM1609.31,1945.31c15.24-13.29,22.65-42.84,10.71-60.32-29.08-42.57-61.19,12.91-51.89,45.9,5.54,19.65,24.68,28.82,41.18,14.43ZM1677.38,1874.63c-36.25-32.73-72.86,79.73-24.33,77.57,28.2-1.25,44.34-59.51,24.33-77.57ZM883.31,1961.31c18.9-16.28,24.03-57.8.61-72.23-36.84-22.7-59.87,42.16-36.76,70.76,9.34,11.56,25.42,10.71,36.15,1.47ZM753.18,1961.26c14.1-19.31,17.2-68.53-10.6-74.84-33.58-7.62-40.79,58.45-23.47,77.47,8.76,9.63,26.63,7.56,34.07-2.63ZM813.37,1961.36c17.84-15,16.93-67.69-9.33-74.46-40.27-10.38-45.53,84.91-1.18,78.98,2.91-.39,8.27-2.63,10.51-4.52ZM648.55,1967.45c8.42,8.63,27.97,4.3,35.48-4.43,13.65-15.87,16.67-65.54-7.97-72.09-19.25-5.12-33.88,15.11-35.82,32.28-1.14,10.05,1.31,37.06,8.32,44.24Z"/>
  <path d="M1483.23,702.78c3.31,2.98,15.55,19.45,18.73,17.2,2.45-8.82,12.65-13.89,18.03-21,6.98-9.23,12.94-24.21,20.09-34.01,40.65-11.14,26.7,18.18,32.8,43.15,2.65,10.85,12.09,24.45,21.26,30.74,23.36,16.06,67.63-2.58,88.44-17.39,17.13-12.19,29.1-33.3,51.41-39.48-6.71,12.38,8.78,18.19,17.04,10.11,9.48,8.54,8.09,23.48,11.48,34.39,10.27,33.13,34.55,60.03,71.96,46.95,18-6.29,28.64-23.67,49.53-23.45l-3.95,6.99,10,7.9c-4.76,18.33-12.59,25.06-28.58,33.6-8.6,4.59-22.68,9.81-33.01,10.95-53.99,5.96-84.75-39.48-92.47-87.46-11.34-.64-11.72,8.74-16.67,13.33-11.48,10.63-42.45,30.41-57.31,35.68-22.25,7.89-60.14,9.89-80.77-3.24-3.56-2.26-4.1-5.81-5.9-7.09-14.71-10.44-16.43-10.18-24.18-28.85-1.12-2.7-4.8-10.72-4.99-11.35-1.7-5.62-.79-12.92-3.15-18.47-4.55,6.85-23.51,22.78-22.69,30.47,2.01,18.88,20.69,49.46,35.26,61.51,27.07,22.37,62.85,23.42,94.97,11.56,14.21-5.25,30.29-19.68,42.4-23.69,7.39-2.44,11.49,1.62,17.02-3.86-.18,7.44,9.53,10.72,11.17,15.84,2.17,6.76,1.21,17.85,3.44,26.57,19.34,75.5,150.29,52.68,165.44-16.41,6.32-1.74,2.62,3.9,4.37,5.61,4.12,4.03,1.59-2.85,7.74,8.86.77,1.46,3.46,1.49,3.79,2.95,1.63,7.09-.35,20.61-3.86,27.14-12.12,22.5-52.56,47.21-78.1,52.63-40.3,8.55-66.81-.86-100.06-22.06-2.43-1.55-6.14-.49-7.49-1.54-.82-.64-.83-4.55-2.35-6.56-5.06-6.65-11.98-12.63-16.14-19.93-2.06-3.62-6.15-20.31-9.34-21.15-7.56-1.97-29.27,10.5-39.38,12.43-5.9,1.12-12.58-.62-18.27,0-3.97.44-11.35,4.33-16.93,3.64,11.73,15.15,26.09,29.16,37.2,44.76,72.1,101.28,87.45,248.7,98.73,370.26,3.89,41.93,8.34,87.13,6.56,128.32-.19,4.41,8.43,15.89-.61,17.68,7.67,48.82,1.02,99.69.88,149.6-.09,33.29,2.6,67.71,4.85,100.68.17,2.55-5.13,9.53-5.23,15.65-.55,34.12-1.22,73.65-.36,107.99.48,19.03,10.89,44.39-15.84,52.83-.66-4.68-5.32-5.23-7.91-9.07-11.47-16.99-2.83-27.82-2.2-45.65.32-8.98-2.14-17.04-2.13-24.2.02-24.61,3.1-50.43-.54-74.29-4.7-5.9-25.4-3.6-27.35,4.49-2.27,28.08,1.01,56.18,1.57,84.12.11,5.59-1.46,12.07-1.33,17.54.44,18.85,12.13,52.63-15.24,57.37-16.3-2.69-10.48-52.27-10.97-65.2-.69-17.8-2.96-36.19-3.33-54.25-.08-3.98,2.23-29.49,1.24-30.66-5.74,3.67-18.09,0-18.01-6.96.14-12,38.46-32.75,50.02-33.06-3.32-4.96-6.08-10.87-9.25-15.81-2.06-3.21-6.55-10.22-7.77-14.29-1.34-4.47,1.06-10.04-4.12-14.01-14.71,4.93-26.65,15.29-42.85,16.14,2.5,7.88,8.45,14.22,10.64,22.51,9.1,34.5-10.38,42.42-12.73,64.44-2.18,20.42-1.12,59.21,0,80.11,1.02,18.96,11.53,37.5-7.06,52.62-31.79-.88-18.47-28.42-18.79-48.6-.29-18.21-4.05-39.55-4.25-58.13-.23-21.44,5.77-95.54.59-110.36-3.21-9.19-17.49-15.44-6.56-27.35,1.99-2.17,5.4-.19,6.21-2.51,2.87-8.23-.1-21.43-.15-29.66-.12-22.75-3.24-87.53,3.1-105.06,1.27-3.51,4.76-6.05,5.01-10.02,3.51,6.56,11.29,3.6,11.85,4.01.74.54.98,6.53,2.17,8.44s3.98,2.33,4.77,3.66c4.18,7.06.87,51.38,1.11,62.96.28,13.21,1.73,26.78,2.17,39.85.28,8.33-.41,16.75-.09,25.07,2.14,2.22,28.58-14.28,29.52-19.22l-5.49-159.73c-.37-26.83,21.23-29.91,25.91-3.81,7.22,40.34,5.02,85.92,8.12,127.73.15,1.99-1.05,4.24-1.78,6.11.6,5.98,20.53-2.17,21.71-1.06l-1.99,5.97,7.98-1.99c1.22.96,2.37,20.42,2.14,23.07-.93,10.36-5.07,16.07-4.09,27.91.48,5.72,2.71,15.79,7.95,19.02l.08-236.91c-4.94-37.28-2.7-76.51-6.9-113.7-.24-2.13-.06-7.79-3.14-7.37,1.75,81.45-61.18,146.21-131.71,176.27-.1,8-1.1,15.67-3.7,23.26-3.29,9.59-9.51,22.84-13.72,34.34-.74,2.02-4.15,3.15-4.89,7.17-2.59,14.12,6.19,8.35,8.95,10.86,11.28,10.22,7.6,20.95,9.09,33.05,9.3,75.63,5.05,155.47,4.37,232.03-.13,14.8,8.33,65.02-8.37,72.09-1.55.66-9.64-3.96-13.89-1.18-.23-4.84-3.65-7.98-4.24-12.82-2.62-21.39.47-42.83.23-64.01-.52-45.65-1.25-90.97-2.23-136-.77-35.29.87-70.49-4.9-105.1-9.06,17.58-16.76,35.82-27.37,52.65-18.39,29.17-43.66,63.04-68.63,87.37-13.65,13.3-72.44,62.31-87.97,63.7-1.63.15-4.75-1.99-5-1.72-.32.35.63,4.35-2.06,6.95-4.21,4.08-21.65,7.72-27.83,10.21-135.24,54.54-264.87,13.59-364.23-88.11-24.07-24.64-43.16-53.54-63.9-81.03,1.35,7.96-1.7,15.41-2.1,22.92-3.49,64.63.54,143.44,4.25,207.73.69,11.88,6.96,40.24-3.15,49.36-6.86,6.19-18.35-4.12-21.44-10.59-11.76-24.62-7.77-86.21-8.69-114.43-5.8-177.36-3.22-373.46,53.7-543.42,2.03-6.06,8.7-16.7,9.45-20.56.54-2.77-.12-3.8-2.98-2.98-15.41,4.4-32.87,27.04-38.58,41.43-41.09,103.61-62.06,279.54-64.49,391.51-1.11,51.18-.87,103.58,2,156.03.43,7.87-1.8,18.52.48,27.52,1.85,7.3,15.77,23.48,10.54,31.47-1.05,1.61-4.5,2.11-5.88,4.11-6.76,9.81,5.86,31.89-7.21,40.85-16.55,4.35-23.38-9.42-23.99-24.05s9.66-9.52,15.58-19.89c.13-1.79-15.52-24.65-17.88-29.65-13.5-28.55-20.55-66.59-17.39-98.12,1.89-18.84,10.92-36.45,13.6-55.07-15.34-1.28-24.44-14.12-39.85-12.19,2.24,7.94-3.48,12.02-5.4,17.61-19.54,56.8-15.93,135.28,20.55,184.31,2.05,2.76,5.21,3.32,6.91,5.57,9.38,12.43-1.51,10.7-4.98,16.6-4.53,7.69-1.5,20.83-17.52,13.37-11.63-5.42-9.38-19.02-13.11-28.89-2.77-7.33-10.08-15.13-13.46-22.54-22.27-48.86-21.08-119.01-2.54-168.59,2.69-7.19,9.45-14.7,11.37-22.61,2.71-11.15.02-32.63.74-45.76,3.08-56.46,4.76-110.75,15.25-166.26,2.21-11.72,6.45-25.19,7.62-36.39.23-2.2,2.34-6.81-1.4-6.39-12.44,34.29-23.42,69.52-31.92,105.09-20.89,87.37-24.84,175.95-24.2,265.99-2.5,35.41,13.2,86.29,9.58,119.4-1.04,9.52-3.44,16.22-14.26,14.92-13.35-1.61-9.54-23.1-15.88-31.8l.28-10.08c-25.36-222.33,6.1-473.25,154.32-648.51,98.36-116.3,236.39-215.25,372.64-281.45,9.79-4.75,22.21-8.79,32.47-13.53,1.05-.49,6.75-2.12,3.93-4.07-27.96,7.93-57.26,12.03-84.9,21.1-177.32,58.22-325.54,178.13-411.51,344.49-85.64,165.72-115.01,317.14-108.62,503.52,1.08,31.44,10.72,79.08,8.05,107.91-1.17,12.65-6.09,21.18-19.46,14.4-5.56-2.81-9.75-14.54-10.33-20.63-1.58-16.61-2.21-36.81-3.38-54.18-5.04-74.48-3.81-150.01,1.15-224.6-28.88,29.84-61.6,56.86-100.95,72.03-14.43,5.56-39.37,15.2-53.78,7.72-3.28-1.7-5.31-5.71-8.25-7.75-6.61-4.58-26.31-15.91-24.02-26.22,5-22.47,34.82,11.88,44.03,12.41,2.13.12,23.05-5.24,25.47-6.31,39.85-17.52,117.27-70.66,129.31-115.11,2.66-9.84,2.71-20.97,5.16-30.83,4.28-17.24,17.12-50.85,18.64-65.53s-1.66-32.77.69-51.14c28.65-224.64,155.93-416.41,371.17-496.84,102.76-38.4,234.79-59.5,340.99-23.86,11.39,3.82,24.37,8.77,12.66,21.52-8.38,9.12-37.46,13.04-50.62,17.38-106.96,35.26-201.93,87.84-291.71,154.2-4.03,2.98-22.72,14.06-24.28,16.79-1.38,2.42-3.17,14.02-5.74,19.27-9.38,19.14-18.43,32.56-26.31,53.69-.94,2.52-8.39,8.71-1.23,10.49,1.33.33,14.94-2.05,19.91-1.95,14.46.27,37.87,2.97,49.52,10.41,2.02,1.29,10.46,6.26,9.37,8.61-4.81,1.66-6.22,6.76-8.9,9.1-3.19,2.78-8.96-.03-7.11,7.92l-73.09-6.25c-14.21,26.99-22.8,56.34-28.88,86.24l15.59-17.95c24.64-23.1,69.06-47.73,103.51-36.16,28.34,9.52,48.57,49.51,29.71,75.95-15.74,22.07-47.65,26.73-63.66,2-15.07-23.27-7.39-65.48,26.81-47.83l-1.31-6.03c-38.29-9.04-74.07,16.78-102.08,39.77l-10.57-3.73-13.55,55.47c-13.55,71.87-22.05,144.22-24.35,217.42,82.18,174.62,273.9,283.94,456.53,176.77,98.4-57.74,160.44-163.71,192.85-271.15,1.02-3.38,3.18-21.15,4.55-22.51.26-.26,4.49,1.38,7.36.53,4.61-1.37,17.95-11.08,23.78-14.33,28.06-15.63,61.25-35.69,79.46-64.64,44.47-70.72,6.76-175.01-83.56-169.41-19.96,1.24-37.33,13.44-56.08,13.46-9.48.01-17.45-3.9-24.34-10.27-39.91-36.9-78.36-108.66-97.66-159.33-15.03-39.47-29.41-84.67-31.14-126.83l16.15-2.26c3.27,2.03,19.21,63.55,22.61,73.47,17.45,50.88,42.44,105.59,72.15,147.85,13.83,19.67,29.3,38.13,48.23,53.08,3.18.17,15.26-8.34,20.09-9.19,43.74-7.75,80.63-8.27,114.92,22.87,19.91,18.08,37.34,45.99,43.85,72.15,1.13,4.53-1.76,14.54,4.11,16.86l-11.84-99.11c-11.74-111.19-49.75-270.63-158.81-325.21-8.02-4.01-22.9-6.83-27.49-10.51-15.97-12.76-9.52-26.54-14.9-43.1-17.62-54.33-109.05-115.78-164.81-121.15-8.25-.79-46.08,6.54-36.68-12.39,9.72-19.58,62-8.07,78.15-3.12,32.77,10.04,74.18,38.51,99.63,61.39ZM1295.98,850.03c-57.97-7.13-119.36,1.45-176.01,14.95-174.19,41.49-318.32,152.63-386.36,319.64-16.2,39.77-28.51,81.44-37.6,123.38,5.24.95,3.54-.95,4.86-4.02,8.87-20.49,18.36-39.14,26.93-57.56,2.62-5.64,1.9-14.16,10.22-12.42-3.01-5.16-1.28-8.67,1.43-13.47,108.41-191.68,285.61-316.95,502.1-361.97l54.43-8.53ZM920.01,1155.99l30.95-16.03c4.18-7.95,5.55-16.74,8.96-25.04,2.16-5.26,7.85-7.85,6.07-14.91-19.39,15.54-40.25,30.51-45.97,55.99ZM843.35,1309.45c2.58-6.91,3.17-24.13,5.61-33.47,2.49-9.53,9.17-22.02,12.4-31.61,7.35-21.82,14.21-43.8,22.65-65.35-4.99,1.73-10.53,7.97-14.07,11.93-36.62,40.95-54.19,113.79-66.96,167.04-17.04,71.07-24.31,148.62-25.09,218.93-.07,6.28-1.28,29.33,2.08,32.1,2,1.65,20.48,8.56,22.01,6.97-2.53-16.66,1.97-33.01,3.22-49.35,2.51-32.83,4.71-67.87,8.88-97.31,7.18-50.75,12.03-113.78,29.26-159.88Z"/>
  <path d="M810.36,686.37c-2.65,4.18,6.39,12.34-4.16,13.85,4.73,8.44-1.14,6.94-2.04,9.32-2.12,5.62-4.18,16.28-8.03,21.07-2.32,2.9-5.97,2.05-7.61,3.92-2.17,2.48-7.12,14.49-9.63,17.36-2.16,2.48-14.19,11.27-17.4,14.1-15.63,13.75-43.17,34.16-62.08,42.53-7.79,3.45-7.58,4.25-14.38,7.71-47.87,24.35-101.28,26.81-140.05,71.75-7.69,8.92-28.11,38.19-23.7,49.48l52.71,42.54c.53-5.48,2.3-11.49,4.6-16.46,18.94-40.98,46.39-47.7,83.9-64.06,58.1-25.34,140.42-71.15,175.13-128.87,3.06-5.09,13.32-23.6,14.07-28.12,1.42-8.56-16.11-22.36-21.64-29.54-5-6.5-14.62-16.97-11.01-24.91,8.56-18.85,25.72,10,31.89,16.08,6.91,6.81,48.08,37.69,41.06,45.87l-5.97-2c-.72,6.21-2.62,14.55-4.66,20.36-14.24,40.59-45.85,70.3-78.65,94.38-22.35,16.4-47.08,33.47-71.38,45.6-55.42,27.67-142.51,30.26-141.32,111.68-4.61-1.59-15.16,1.99-18.11.89-7.35-2.74-32.31-35.53-42.63-41.07-5.49-14.42-19.85-16.73-25.36-30.74-14.75-37.57,17.83-78.39,44.35-101.83,62.31-55.05,153.89-58.06,212.61-135.39,17.42-22.95,19.61-47.79,36.12-69.83,2.75,3.7,8.1,3.64,11.09,6.88,4.65,5.04,9.41,27.73,7.49,33.93-.84,2.69-4.56,2.51-5.2,3.52Z"/>
  <path d="M1267.55,786.62c.66.4.26,3.76,1.41,3.4,6.65-5.89,22.47-1.32,31.54.49,22.49,4.48,54.92,12.91,74.13,21.63,11.22,5.09,27.91,12.38,31.5,24.82-1.51,16.27-42.54-4.32-51.26-6.82-214.83-61.59-501.06-6.2-597.22,216.53-5.48,12.68-14.5,44.87-20.77,53.23-2.93,3.9-6.91,7.11-11.77,8.23-8.07-6.69-5.37-9.31-7.14-16.77-.39-1.62-4.02-1.35-4.08-2.48s5.47-18.49,6.5-21.46c71.14-204.27,279.99-289.48,488.44-283.73,10.57.29,52.16-.97,58.71,2.94Z"/>
  <path d="M1289.45,738.51c16.67,7.77,38.11,10.33,55.68,17.36,3.43,1.37,5.54,3.41,7.88,6.12l1.95-4.01,44.43,21.62,50.74,35.26,1.59,7.71c-.61,2.18-2.98,4.46-5.16,5.1-13.2,3.82-76.37-34.1-94.61-40.62-125.99-45-285.14-63.06-406.93,2.97-35.74,19.38-66.3,42.5-94.29,71.84-16.15-7.9-7.43-26.06,1.57-36.56,13.7-15.98,54.54-43.28,73.63-54.37,89.88-52.22,225.74-58.73,326.03-40.06,5.1.95,35.72,6.82,37.48,7.65Z"/>
  <path d="M1449.27,744.75c13.19,10.69,41.43,36.52,48.52,50.88,2.37,4.79,9.96,22.88-.77,22.59-7.49-.2-18.41-17.12-24.99-23.25-87.04-80.98-233.18-142.83-351.56-105.5-22.6,7.13-44.44,22.96-68.5,19.5.1-18.04,12.03-24.31,26.93-31.06,113.24-51.29,274.19-11.12,370.36,66.84Z"/>
  <path d="M1032.84,443.16c22.25,20.81,29.26,23.07,59.85,25.57,2.34.19,4.66,2.63,6.55,2.66,13.62.26,29.75-6.99,42.92,3.9,2.25,10.63-9.01,13.06-11.13,16.73-1.74,3.01-.29,7.63-1.96,10.1-1.29,1.9-5.16,1.24-6.55,2.38-2.19,1.79-19.75,25.95-21.37,29.65-7.6,17.44,1.4,39.02-25.13,38.97-10.71-11.57-9.04-30.9-5.05-45.14,1.5-5.36,18.44-32.71,17.01-33.96-12.31.64-34.52-5.31-44.73-12.28-3.24-2.21-10.7-15.55-13.31-6.84-5.05,16.87-7.52,29.44-16.88,45.18-2.77,4.67-17.65,21.01-15.05,23.93,51.99-5.97,88.63,40.52,85.98,89.99l-13.12-7.86c-20.77-29.26-25.68-51.34-64.42-59.57-9.76-2.07-34.07-.73-39.85-7.17-4.66-5.19-2.59-15.57.52-21.35.77-1.44,3.86-1.93,4.91-3.55,15.27-23.58,36.36-48.38,37.99-77.39.62-11.14-6.35-27.08,7.99-28.07,6.93,2.93,10.23,9.82,14.83,14.13Z"/>
  <path d="M1388.67,1207.33c3.73,3.64,9.95,9.42,12.52,14.41,16.02,31.1,8.63,54.21-23.12,69.51-17.06,3.81-39.16-4.83-48.02-20.23-8.02-13.93-11.2-37.92,4.84-47.13,10.65-6.11,17.03,1.8,27.1,2.1,1.4-4.98-9.04-7.6-12.39-8.6-39.2-11.75-79.62,16.43-110.84,36.42-20.18-11.57,18.47-39.72,29.42-46.63,37.19-23.46,86.79-32.74,120.49.15Z"/>
  <path d="M1553.23,876.81c53.68,52.69,121.18,165.37,130.66,240.29,1.36,10.72,1.32,24.73-6.87,32.72-2.13-4.18-7.55-2.17-9.11-3-2.76-1.47-3.13-5.09-5.02-6.81-2.16-1.97-5.87-1.61-6.54-2.35-1.1-1.22-5.53-27.23-6.93-32.09-22.41-78.04-52.48-140.1-103.54-203.99-13.64-17.07-29.76-32.02-43.03-49.48-2.36-6.53-.43-11.77,7.21-9.25,9.03,2.97,35.32,26.26,43.16,33.96Z"/>
  <path d="M1630,1124.02l-13.54-.38c-1.41-5.87-7.02-5.22-10.53-8.57-5.73-5.46-6.18-12.95-9.11-18.87-22.75-46.01-49.84-93.16-76.5-137.52-18.23-30.33-37.1-60.22-56.02-90.13,2.79-21.31,13.37-15.63,24.53-2.38,43.39,51.52,104.34,150.77,131.52,212.48,6.46,14.67,13.16,29.11,9.65,45.36Z"/>
  <path d="M1494.73,1005.31c14.7,27.97,43.12,69.65,63.23,95.17,5.82,7.39,19.32,13.41,15.78,27.35-6.45-1.62-6.07,5.87-10.19,5.79-19.67-.35-38.38-27.5-49.23-42.94-4.25-6.05-12.48-18.11-16.04-24.4-7.4-13.11-12.75-24.2-20.44-38.69-16.34-30.82-34.56-67.69-44.45-101.98-2.5-8.68-9.31-39.16-9.09-46.71.25-8.56,12-13.76,16.52-6.78,8.79,23.91,16.41,48.33,26.21,71.85,7.68,18.44,18.59,44.01,27.7,61.34Z"/>
  <path d="M1512.4,1616.43c12.16-7.04,20.82,13.26,21.69,22.47,4.11,43.3-3.12,87.52-5.82,130.36-.96,15.32,1.32,76.12-7.22,84.79-8.31,8.44-17.61-.46-20.48-9.63-6.01-19.19,0-29.21.92-45.95,2.84-51.65,1.88-103.22,2.95-154.99.11-5.38,3.95-24.74,7.96-27.06Z"/>
  <path d="M1214.13,1153.85c1.1-6.19-5.33-10.58-3.82-16.32.61-2.32,3.56-4.49,4.65-7.35,1.69-4.47-4.9-5.2,7.99-10.24,11.61-4.54,19.28-2.4,29.9-4.09,44.3-7.05,93.91-13.44,136.51,7.8,8.87,4.42,44.87,29.22,44.28,39.01-.1,1.7-3.36,7.15-4.61,7.24-3.5.26-27.29-22.02-34.63-25.3-21.46-9.56-59.93-13.3-83.23-10.45-26.24,3.21-58.14,17.75-82.86,20.75-4.11.5-9.63-1.55-14.17-1.06Z"/>
  <path d="M605.38,1456.59c6.9,8.58-5.31,30.96-10.56,39.22-27.87,43.8-89.81,93.43-140.8,105.18-13.88,3.2-34.66,5.46-35.73-13.57,2.67-7.42,9.21-4.26,14.3-5.5.65-.16,6.09-3.25,11.51-4.8,8.14-2.33,14.28-7.31,23.92-5.14l-2.03-3.96c5.13-.25,9.89-2.44,14.38-4.66,32.63-16.16,86.66-56.93,105.6-88.4,3.72-6.17,9.13-31.15,19.42-18.36Z"/>
  <path d="M1191.42,1456.54c8.15,19.76-17.28,24.2-31.25,16.27-41.54-23.56-35.34-67.56-20.95-106.6,3.6-9.77,34.16-72.79,40.04-73.93l8.37,6.27c-9.83,38.22-39.44,79.85-35.59,120.43,2.37,25,21.51,25.83,39.38,37.56Z"/>
  <path d="M1712.69,1870.69c23.28-19.93,45.37,4.23,46.84,28.79,1.55,25.83-25.32,71.17-53.59,47.58-17.99-15.01-9.57-62.41,6.75-76.37Z"/>
  <path d="M1541.33,1947.33c-10.71,10.56-29.66,12.83-39.38-.28-19.83-26.72,10.3-96.67,43.09-73.09,11.85,8.52,12.86,36.95,10.07,50.15-1.02,4.84-10.25,19.75-13.78,23.22Z"/>
  <path d="M883.31,1961.31c-10.73,9.25-26.81,10.1-36.15-1.47-23.11-28.61-.07-93.47,36.76-70.76,23.42,14.43,18.29,55.95-.61,72.23Z"/>
  <path d="M1609.31,1945.31c-16.5,14.39-35.65,5.22-41.18-14.43-9.3-32.99,22.81-88.47,51.89-45.9,11.95,17.49,4.54,47.03-10.71,60.32Z"/>
  <path d="M753.18,1961.26c-7.44,10.19-25.31,12.26-34.07,2.63-17.32-19.02-10.11-85.09,23.47-77.47,27.79,6.31,24.7,55.53,10.6,74.84Z"/>
  <path d="M648.55,1967.45c-7.01-7.18-9.46-34.19-8.32-44.24,1.94-17.18,16.57-37.4,35.82-32.28,24.64,6.55,21.62,56.22,7.97,72.09-7.51,8.73-27.06,13.06-35.48,4.43Z"/>
  <path d="M1677.38,1874.63c20.01,18.07,3.86,76.32-24.33,77.57-48.53,2.15-11.92-110.3,24.33-77.57Z"/>
  <path d="M813.37,1961.36c-2.25,1.89-7.61,4.13-10.51,4.52-44.35,5.93-39.09-89.36,1.18-78.98,26.27,6.77,27.18,59.45,9.33,74.46Z"/>
  <path d="M1254.83,1564.83c-16.29,13.43-35.95,23.1-56.48,28.65-9,2.44-38.76,9.77-41.97-.9-5.69-18.9,18.2-14.62,29.56-17.64,34.24-9.1,61.2-30.07,83.51-56.66,33.39,4.8-2.51,36.56-14.62,46.54Z"/>
  <path class="st0" d="M1295.98,850.03l-54.43,8.53c-216.49,45.01-393.69,170.29-502.1,361.97-2.71,4.79-4.44,8.31-1.43,13.47-8.32-1.74-7.6,6.78-10.22,12.42-8.56,18.42-18.05,37.07-26.93,57.56-1.33,3.07.38,4.97-4.86,4.02,9.09-41.94,21.4-83.61,37.6-123.38,68.04-167.01,212.17-278.14,386.36-319.64,56.65-13.5,118.04-22.08,176.01-14.95Z"/>
  <path class="st0" d="M843.35,1309.45c-17.23,46.1-22.08,109.13-29.26,159.88-4.17,29.44-6.37,64.48-8.88,97.31-1.25,16.34-5.75,32.7-3.22,49.35-1.52,1.58-20.01-5.33-22.01-6.97-3.36-2.77-2.15-25.81-2.08-32.1.78-70.31,8.05-147.86,25.09-218.93,12.77-53.25,30.34-126.1,66.96-167.04,3.54-3.96,9.08-10.2,14.07-11.93-8.44,21.54-15.31,43.53-22.65,65.35-3.23,9.6-9.91,22.09-12.4,31.61-2.44,9.34-3.03,26.56-5.61,33.47Z"/>
  <path class="st0" d="M920.01,1155.99c5.72-25.48,26.58-40.45,45.97-55.99,1.78,7.06-3.91,9.65-6.07,14.91-3.41,8.3-4.78,17.1-8.96,25.04l-30.95,16.03Z"/>
</svg>